# xmcd CD database file
#
# Track frame offsets:
#	150
#	14429
#	28829
#	41097
#	55700
#	71728
#	84533
#	99179
#	110970
#	121187
#	133793
#	146552
#	159389
#	171770
#	185276
#	198650
#	210626
#	225841
#	240058
#	253432
#	267775
#	280089
#	292334
#	306193
#	318032
#
# Disc length: 4397 seconds
#
# Revision: 0
# Processed by: cddbd v1.5.1PL0 Copyright (c) Steve Scherf et al.
# Submitted via: CDex 1.51
#
DISCID=67112b19
DTITLE=Lowell Fulson - 3 o'clock blues
DYEAR=1999
DGENRE=Blues
TTITLE0=Three O'Clock Blues
TTITLE1=I'M Prison Bound
TTITLE2=My Baby Left Me
TTITLE3=Night And Day
TTITLE4=Double Trouble Blues
TTITLE5=Stormin' And Raining'
TTITLE6=Good Woman Blues
TTITLE7=Crying Blues
TTITLE8=You'Re Gonna Miss Me (When I'M Gone)
TTITLE9=Miss Katie Lee Blues
TTITLE10=Rambling Blues
TTITLE11=Fulson Blues
TTITLE12=San Francisco Blues
TTITLE13=Jelly, Jelly
TTITLE14=Trouble Blues
TTITLE15=I Want To See My Baby
TTITLE16=Black Widow Spider Blues
TTITLE17=Don'T Be so Evil
TTITLE18=Scotty's Blues
TTITLE19=The Train Is Leaving
TTITLE20=Fulson Boogie
TTITLE21=Highway '99'
TTITLE22=Television Blues
TTITLE23=Tears At Sunrise
TTITLE24=Jam That Boogie
EXTD=YEAR: 1999
EXTT0=
EXTT1=
EXTT2=
EXTT3=
EXTT4=
EXTT5=
EXTT6=
EXTT7=
EXTT8=
EXTT9=
EXTT10=
EXTT11=
EXTT12=
EXTT13=
EXTT14=
EXTT15=
EXTT16=
EXTT17=
EXTT18=
EXTT19=
EXTT20=
EXTT21=
EXTT22=
EXTT23=
EXTT24=
PLAYORDER=
